<svg width="24" height="24" xmlns="http://www.w3.org/2000/svg">

 <g>
  <title>background</title>
  <rect fill="none" id="canvas_background" height="402" width="582" y="-1" x="-1"/>
 </g>
 <g>
  <title fill="#ffffff" fill-opacity="0.5">Layer 1</title>
  <path fill-opacity="0.5" fill="#ffffff" id="svg_1" d="m19,13l-14,0a1,1 0 0 1 0,-2l14,0a1,1 0 0 1 0,2z" class="cls-1"/>
  <path fill-opacity="0.5" fill="#ffffff" id="svg_2" d="m19.74,9l-15.48,0a1,1 0 0 1 -0.95,-1.3c1.04,-3.35 4.61,-5.7 8.69,-5.7s7.65,2.35 8.69,5.7a1,1 0 0 1 -1,1.3l0.05,0zm-13.91,-2l12.34,0a7.34,7.34 0 0 0 -6.17,-3a7.34,7.34 0 0 0 -6.17,3z" class="cls-1"/>
  <path fill-opacity="0.5" fill="#ffffff" id="svg_3" d="m16,21l-8,0a5,5 0 0 1 -5,-5a1,1 0 0 1 1,-1l7.71,0a1,1 0 0 1 0,2l-6.54,0a3,3 0 0 0 2.83,2l8,0a3,3 0 0 0 2.83,-2l-3.12,0a1,1 0 0 1 0,-2l4.29,0a1,1 0 0 1 1,1a5,5 0 0 1 -5,5z" class="cls-1"/>
 </g>
</svg>