<?xml version="1.0" ?><svg height="58px" version="1.1" viewBox="0 0 58 58" width="58px" xmlns="http://www.w3.org/2000/svg" xmlns:xlink="http://www.w3.org/1999/xlink"><title/><desc/><defs/><g fill="none" fill-rule="evenodd" id="Page-1" stroke="none" stroke-width="1"><g id="Icons" transform="translate(-241.000000, -820.000000)"><g id="42--Leaf--(garden,-flower,-plant,-soil)" transform="translate(241.000000, 820.000000)"><path d="M58,0 C17.319,0 -2.84217094e-14,4.632 -2.84217094e-14,58 C40.681,58 58,53.368 58,0" fill="#24AE5F" id="Fill-534"/><path d="M54.9999,0.0103 C54.9979,52.0363 38.5279,57.7373 -0.0001,57.9893 L-0.0001,58.0003 C40.6809,58.0003 57.9999,53.3683 57.9999,0.0003 C56.9839,0.0003 55.9869,0.0043 54.9999,0.0103" fill="#1B8347" id="Fill-535"/><path d="M-2.84217094e-14,58 C0.574,37.669 4.187,25.728 11.5,19.647 C18.332,13.966 29.578,12.275 46,12 C45.426,32.331 41.649,44.366 34.337,50.447 C27.505,56.128 16.422,57.725 -2.84217094e-14,58" fill="#5ED38D" id="Fill-536"/><path d="M-2.84217094e-14,58 C0.985,43.557 3.899,34.732 9.039,30.458 C13.306,26.91 21.351,24.627 34,24 C32.988,38.274 29.36,47.744 24.204,52.032 C19.941,55.576 12.735,57.392 -2.84217094e-14,58" fill="#3D9B63" id="Fill-537"/></g></g></g></svg>