<svg width="48.00000000000001" height="48.00000000000001" xmlns="http://www.w3.org/2000/svg">

 <g>
  <title>background</title>
  <rect fill="none" id="canvas_background" height="402" width="582" y="-1" x="-1"/>
 </g>
 <g>
  <title fill="#ffffff" fill-opacity="0.5">Layer 1</title>
  <polygon fill-opacity="0.5" id="svg_2" points="25.916,8 25.916,23.359 32.992,30.434 30.164,33.262 21.9,25 21.916,24.983 21.916,8  " fill="#ffffff"/>
  <path fill-opacity="0.5" id="svg_3" fill="#ffffff" d="m2.216,34.138l-2.216,0l0,4.747l2.216,0c0.271,1.058 0.711,2.051 1.306,2.934l-1.521,1.522l2.693,2.691l1.544,-1.543c0.852,0.554 1.797,0.972 2.808,1.231l0,2.216l4.761,0l0,-2.216c1.033,-0.267 2.002,-0.695 2.867,-1.269l1.486,1.484l2.692,-2.691l-1.485,-1.484c0.572,-0.864 1,-1.831 1.268,-2.862l2.218,0l0,-4.776l-2.218,0c-0.262,-1.007 -0.677,-1.951 -1.23,-2.8l1.448,-1.449l-2.692,-2.692l-1.426,1.425c-0.879,-0.591 -1.865,-1.029 -2.918,-1.302l0,-2.22l-4.78,0l0,2.22c-1.03,0.268 -1.994,0.694 -2.858,1.267l-1.483,-1.486l-2.693,2.694l1.484,1.484c-0.578,0.868 -1.006,1.84 -1.271,2.875zm5.294,2.373c0,-2.163 1.754,-3.917 3.916,-3.917c2.164,0 3.918,1.754 3.918,3.917s-1.754,3.917 -3.918,3.917c-2.162,0 -3.916,-1.754 -3.916,-3.917z"/>
  <path fill-opacity="0.5" id="svg_4" fill="#ffffff" d="m0.025,22.997l0,2.007c-0.013,-0.334 -0.025,-0.668 -0.025,-1.004s0.012,-0.67 0.025,-1.003z"/>
  <path fill-opacity="0.5" id="svg_5" fill="#ffffff" d="m30.083,9.958l0.958,-0.958l-0.041,0l2.555,-2.555c-2.84,-1.552 -6.09,-2.445 -9.555,-2.445c-10.678,0 -19.376,8.375 -19.945,18.911l-4.028,0c0.571,-12.749 11.083,-22.911 23.973,-22.911c4.576,0 8.845,1.293 12.483,3.517l2.517,-2.517l0,0.042l1.041,-1.042l0,9.715l-0.243,0.243l-9.715,0z"/>
  <path fill-opacity="0.5" id="svg_6" fill="#ffffff" d="m44,24c0,-2.868 -0.618,-5.585 -1.709,-8.048l2.998,-2.998c1.725,3.307 2.711,7.058 2.711,11.046c0,13.255 -10.745,24 -24,24l0,-4c11.046,0 20,-8.954 20,-20z"/>
 </g>
</svg>